<svg xmlns="http://www.w3.org/2000/svg" style="display: none;">
  <symbol id="home-icon" viewBox="0 0 24 24">
    <path d="M3 9l9-7 9 7v11a2 2 0 01-2 2H5a2 2 0 01-2-2V9z" fill="currentColor"/>
  </symbol>
  <symbol id="friends-icon" viewBox="0 0 24 24">
    <path d="M17 21v-2a4 4 0 00-4-4H5a4 4 0 00-4 4v2" fill="currentColor"/>
    <circle cx="9" cy="7" r="4" fill="currentColor"/>
    <path d="M23 21v-2a4 4 0 00-3-3.87" fill="currentColor"/>
    <path d="M16 3.13a4 4 0 010 7.75" fill="currentColor"/>
  </symbol>
  <symbol id="watch-icon" viewBox="0 0 24 24">
    <circle cx="12" cy="12" r="10" fill="currentColor"/>
    <path d="M12 6v6l4 2" fill="#fff"/>
  </symbol>
  <symbol id="marketplace-icon" viewBox="0 0 24 24">
    <path d="M3 3h18v18H3z" fill="currentColor"/>
    <path d="M21 11H3m6-8v16m6-16v16" stroke="#fff" fill="none"/>
  </symbol>
  <symbol id="groups-icon" viewBox="0 0 24 24">
    <path d="M17 21v-2a4 4 0 00-4-4H5a4 4 0 00-4 4v2" fill="currentColor"/>
    <circle cx="9" cy="7" r="4" fill="currentColor"/>
    <path d="M23 21v-2a4 4 0 00-3-3.87" fill="currentColor"/>
    <path d="M16 3.13a4 4 0 010 7.75" fill="currentColor"/>
  </symbol>
  <symbol id="photo-icon" viewBox="0 0 24 24">
    <rect x="3" y="3" width="18" height="18" rx="2" ry="2" fill="currentColor"/>
    <circle cx="8.5" cy="8.5" r="1.5" fill="#fff"/>
    <path d="M21 15l-5-5L5 21" fill="none" stroke="#fff" stroke-width="2"/>
  </symbol>
  <symbol id="like-icon" viewBox="0 0 24 24">
    <path d="M14 9V5a3 3 0 00-3-3l-4 9v11h11.28a2 2 0 002-1.7l1.38-9a2 2 0 00-2-2.3zM7 22H4a2 2 0 01-2-2v-7a2 2 0 012-2h3" fill="currentColor"/>
  </symbol>
  <symbol id="comment-icon" viewBox="0 0 24 24">
    <path d="M21 11.5a8.38 8.38 0 01-.9 3.8 8.5 8.5 0 01-7.6 4.7 8.38 8.38 0 01-3.8-.9L3 21l1.9-5.7a8.38 8.38 0 01-.9-3.8 8.5 8.5 0 014.7-7.6 8.38 8.38 0 013.8-.9h.5a8.48 8.48 0 018 8v.5z" fill="currentColor"/>
  </symbol>
  <symbol id="share-icon" viewBox="0 0 24 24">
    <circle cx="18" cy="5" r="3" fill="currentColor"/>
    <circle cx="6" cy="12" r="3" fill="currentColor"/>
    <circle cx="18" cy="19" r="3" fill="currentColor"/>
    <line x1="8.59" y1="13.51" x2="15.42" y2="17.49" stroke="currentColor" stroke-width="2"/>
    <line x1="15.41" y1="6.51" x2="8.59" y2="10.49" stroke="currentColor" stroke-width="2"/>
  </symbol>
</svg>